<?xml version="1.0" encoding="UTF-8"?>
<svg width="1200" height="630" viewBox="0 0 1200 630" xmlns="http://www.w3.org/2000/svg">
  <defs>
    <linearGradient id="cosmicGradient" x1="0%" y1="0%" x2="100%" y2="100%">
      <stop offset="0%" stop-color="#667eea"/>
      <stop offset="50%" stop-color="#764ba2"/>
      <stop offset="100%" stop-color="#f093fb"/>
    </linearGradient>
  </defs>
  
  <!-- Background -->
  <rect width="1200" height="630" fill="url(#cosmicGradient)"/>
  
  <!-- Stars -->
  <circle cx="150" cy="100" r="2" fill="white" opacity="0.8"/>
  <circle cx="300" cy="150" r="1.5" fill="white" opacity="0.6"/>
  <circle cx="450" cy="80" r="2.5" fill="white" opacity="0.9"/>
  <circle cx="600" cy="120" r="1" fill="white" opacity="0.5"/>
  <circle cx="750" cy="90" r="2" fill="white" opacity="0.7"/>
  <circle cx="900" cy="140" r="1.5" fill="white" opacity="0.8"/>
  <circle cx="1050" cy="110" r="2" fill="white" opacity="0.6"/>
  
  <circle cx="100" cy="400" r="1.5" fill="white" opacity="0.7"/>
  <circle cx="250" cy="450" r="2" fill="white" opacity="0.5"/>
  <circle cx="400" cy="380" r="1" fill="white" opacity="0.8"/>
  <circle cx="550" cy="420" r="2.5" fill="white" opacity="0.6"/>
  <circle cx="700" cy="400" r="1.5" fill="white" opacity="0.9"/>
  <circle cx="850" cy="460" r="2" fill="white" opacity="0.7"/>
  <circle cx="1000" cy="440" r="1" fill="white" opacity="0.5"/>
  <circle cx="1150" cy="410" r="2" fill="white" opacity="0.8"/>
  
  <!-- Central Content -->
  <g transform="translate(600, 315)">
    <!-- Music Note Icon -->
    <g transform="translate(-40, -80)" fill="white" opacity="0.9">
      <circle r="15"/>
      <path d="M15,-10 L15,-40 L25,-35 L25,-5 Z"/>
      <ellipse cx="15" cy="-5" rx="12" ry="8"/>
    </g>
    
    <!-- Main Title -->
    <text x="0" y="-20" text-anchor="middle" fill="white" font-family="Arial, sans-serif" font-size="48" font-weight="bold">
      🌟 Cosmic Playlist Generator
    </text>
    
    <!-- Subtitle -->
    <text x="0" y="20" text-anchor="middle" fill="white" font-family="Arial, sans-serif" font-size="24" opacity="0.9">
      AI-Powered Astrological Playlists
    </text>
    
    <!-- Description -->
    <text x="0" y="60" text-anchor="middle" fill="white" font-family="Arial, sans-serif" font-size="18" opacity="0.8">
      Personalized weekly music based on planetary transits
    </text>
  </g>
  
  <!-- Decorative Elements -->
  <g fill="white" opacity="0.3">
    <!-- Musical symbols -->
    <text x="100" y="550" font-family="Arial, sans-serif" font-size="24" opacity="0.5">♪</text>
    <text x="1050" y="580" font-family="Arial, sans-serif" font-size="18" opacity="0.4">♫</text>
    <text x="150" y="580" font-family="Arial, sans-serif" font-size="20" opacity="0.3">♬</text>
    <text x="1000" y="540" font-family="Arial, sans-serif" font-size="16" opacity="0.6">♩</text>
  </g>
</svg>